<svg width="379" height="73" viewBox="0 0 379 73" fill="none" xmlns="http://www.w3.org/2000/svg">
<path d="M31.978 13.754L18.348 43.176H34.986L31.978 13.754ZM11.956 71H0.3V70.812C4.812 66.864 6.504 63.668 10.076 56.336L35.738 1.534H37.994L43.916 58.028C44.668 65.36 45.796 67.804 48.052 70.812V71H33.764V70.812C36.302 68.18 37.054 63.574 36.396 57.558L35.174 45.056H17.502L13.272 54.174C9.606 61.976 9.982 67.898 11.956 70.812V71ZM52.492 71V70.812C55.124 66.394 55.97 63.48 57.286 56.524L64.524 16.574C65.746 9.9 65.652 6.516 64.148 2.38V2.192C70.446 2.192 74.77 1.91 80.41 1.91C96.108 1.91 99.022 9.9 99.022 16.668C99.022 26.162 93.664 33.4 83.23 34.998C90.28 36.22 96.202 40.732 96.202 50.226C96.202 61.224 88.776 71 70.446 71H52.492ZM68.754 34.246H76.274C88.118 34.246 91.784 24.846 91.784 16.292C91.784 8.49 88.87 3.696 79.564 3.696C77.402 3.696 75.146 3.97799 74.112 4.26L68.754 34.246ZM70.352 69.12C82.008 69.12 88.306 62.164 88.306 49.756C88.306 42.33 86.05 36.126 75.804 36.126H68.378L62.644 68.274C64.242 68.744 66.592 69.12 70.352 69.12ZM161.691 29.452C161.691 52.012 145.429 72.41 126.911 72.41C113.093 72.41 103.881 60.566 103.881 43.74C103.881 21.18 120.143 0.781996 138.661 0.781996C152.385 0.781996 161.691 12.626 161.691 29.452ZM111.965 46.748C111.965 60.754 116.947 70.53 127.475 70.53C143.831 70.53 153.513 47.688 153.513 26.444C153.513 12.438 148.625 2.66199 138.097 2.66199C121.835 2.66199 111.965 25.504 111.965 46.748ZM185.94 72.41C174.942 72.41 165.354 65.454 168.362 49.004L174.284 16.386C175.506 9.712 175.412 6.60999 173.908 2.38V2.192H186.504V2.38C184.154 6.234 182.932 9.61799 181.71 16.386L175.882 48.722C172.874 64.42 178.984 70.248 187.162 70.248C197.972 70.248 202.86 60.378 204.646 50.602L210.568 18.83C212.072 11.498 211.79 8.396 208.782 2.38V2.192H220.062V2.38C215.268 8.584 214.046 11.592 212.824 18.83L206.808 50.602C204.74 61.694 199.664 72.41 185.94 72.41ZM233.228 71V70.812C235.766 66.488 236.8 63.48 238.022 56.806L247.61 3.79L239.338 4.166C234.732 4.448 230.408 10.276 223.734 19.77L222.888 19.394L228.81 2.192H274.212L274.024 19.582L273.178 19.77C269.888 9.994 267.444 4.354 264.06 4.26L254.942 3.884L245.448 56.806C244.226 63.48 244.602 66.582 245.824 70.812V71H233.228ZM307.388 72.41C296.39 72.41 286.802 65.454 289.81 49.004L295.732 16.386C296.954 9.712 296.86 6.60999 295.356 2.38V2.192H307.952V2.38C305.602 6.234 304.38 9.61799 303.158 16.386L297.33 48.722C294.322 64.42 300.432 70.248 308.61 70.248C319.42 70.248 324.308 60.378 326.094 50.602L332.016 18.83C333.52 11.498 333.238 8.396 330.23 2.38V2.192H341.51V2.38C336.716 8.584 335.494 11.592 334.272 18.83L328.256 50.602C326.188 61.694 321.112 72.41 307.388 72.41ZM378.149 19.018L377.303 19.206C373.073 6.13999 368.561 2.66199 363.297 2.66199C356.623 2.66199 352.205 7.926 352.205 14.788C352.205 22.308 357.469 27.102 362.733 32.366C367.997 37.63 373.261 43.458 373.261 52.858C373.261 65.548 364.237 72.41 352.487 72.41C346.847 72.41 341.113 70.906 337.353 68.744L336.695 52.012L337.541 51.824C342.335 65.642 347.505 70.53 354.367 70.53C362.357 70.53 366.963 63.574 366.963 55.772C366.963 47.782 361.793 42.706 356.529 37.724L352.769 33.776C349.103 29.922 346.189 25.128 346.189 18.642C346.189 6.704 355.307 0.781996 365.083 0.781996C369.877 0.781996 374.389 2.004 377.679 3.79L378.149 19.018Z" fill="#12181F"/>
</svg>
