<svg width="485" height="73" viewBox="0 0 485 73" fill="none" xmlns="http://www.w3.org/2000/svg">
<path d="M45.162 66.3C42.624 68.274 34.258 72.41 25.046 72.41C8.69 72.41 0.606 60.19 0.606 43.176C0.606 20.616 15.74 0.781996 36.514 0.781996C43.752 0.781996 50.144 3.602 52.4 4.82399L53.434 19.582L52.588 19.77C47.324 7.362 42.06 2.66199 34.634 2.66199C18.184 2.66199 8.69 24.658 8.69 45.526C8.69 60.284 14.518 70.53 25.234 70.53C34.822 70.53 41.402 61.976 48.17 51.448L49.11 51.636L45.162 66.3ZM115.055 29.452C115.055 52.012 98.7927 72.41 80.2747 72.41C66.4567 72.41 57.2447 60.566 57.2447 43.74C57.2447 21.18 73.5067 0.781996 92.0247 0.781996C105.749 0.781996 115.055 12.626 115.055 29.452ZM65.3287 46.748C65.3287 60.754 70.3107 70.53 80.8387 70.53C97.1947 70.53 106.877 47.688 106.877 26.444C106.877 12.438 101.989 2.66199 91.4607 2.66199C75.1987 2.66199 65.3287 25.504 65.3287 46.748ZM131.878 11.216L124.17 54.362C122.948 61.6 122.854 64.796 125.862 70.812V71H115.428V70.812C120.034 64.42 120.504 61.694 122.008 54.362L128.682 17.514L128.588 17.702C129.81 10.088 130.28 7.08 126.332 2.38V2.192H136.108L160.078 58.404L167.128 18.83C168.35 11.592 168.444 8.396 165.718 2.38V2.192H176.152V2.38C171.64 8.584 170.606 11.592 169.384 18.83L159.984 71L157.634 71.282L131.878 11.216ZM188.06 71V70.812C190.598 66.488 191.632 63.48 192.854 56.806L202.442 3.79L194.17 4.166C189.564 4.448 185.24 10.276 178.566 19.77L177.72 19.394L183.642 2.192H229.044L228.856 19.582L228.01 19.77C224.72 9.994 222.276 4.354 218.892 4.26L209.774 3.884L200.28 56.806C199.058 63.48 199.434 66.582 200.656 70.812V71H188.06ZM249.441 13.754L235.811 43.176H252.449L249.441 13.754ZM229.419 71H217.763V70.812C222.275 66.864 223.967 63.668 227.539 56.336L253.201 1.534H255.457L261.379 58.028C262.131 65.36 263.259 67.804 265.515 70.812V71H251.227V70.812C253.765 68.18 254.517 63.574 253.859 57.558L252.637 45.056H234.965L230.735 54.174C227.069 61.976 227.445 67.898 229.419 70.812V71ZM315.871 66.3C313.333 68.274 304.967 72.41 295.755 72.41C279.399 72.41 271.315 60.19 271.315 43.176C271.315 20.616 286.449 0.781996 307.223 0.781996C314.461 0.781996 320.853 3.602 323.109 4.82399L324.143 19.582L323.297 19.77C318.033 7.362 312.769 2.66199 305.343 2.66199C288.893 2.66199 279.399 24.658 279.399 45.526C279.399 60.284 285.227 70.53 295.943 70.53C305.531 70.53 312.111 61.976 318.879 51.448L319.819 51.636L315.871 66.3ZM339.433 71V70.812C341.971 66.488 343.005 63.48 344.227 56.806L353.815 3.79L345.543 4.166C340.937 4.448 336.613 10.276 329.939 19.77L329.093 19.394L335.015 2.192H380.417L380.229 19.582L379.383 19.77C376.093 9.994 373.649 4.354 370.265 4.26L361.147 3.884L351.653 56.806C350.431 63.48 350.807 66.582 352.029 70.812V71H339.433ZM413.593 72.41C402.595 72.41 393.007 65.454 396.015 49.004L401.937 16.386C403.159 9.712 403.065 6.60999 401.561 2.38V2.192H414.157V2.38C411.807 6.234 410.585 9.61799 409.363 16.386L403.535 48.722C400.527 64.42 406.637 70.248 414.815 70.248C425.625 70.248 430.513 60.378 432.299 50.602L438.221 18.83C439.725 11.498 439.443 8.396 436.435 2.38V2.192H447.715V2.38C442.921 8.584 441.699 11.592 440.477 18.83L434.461 50.602C432.393 61.694 427.317 72.41 413.593 72.41ZM484.354 19.018L483.508 19.206C479.278 6.13999 474.766 2.66199 469.502 2.66199C462.828 2.66199 458.41 7.926 458.41 14.788C458.41 22.308 463.674 27.102 468.938 32.366C474.202 37.63 479.466 43.458 479.466 52.858C479.466 65.548 470.442 72.41 458.692 72.41C453.052 72.41 447.318 70.906 443.558 68.744L442.9 52.012L443.746 51.824C448.54 65.642 453.71 70.53 460.572 70.53C468.562 70.53 473.168 63.574 473.168 55.772C473.168 47.782 467.998 42.706 462.734 37.724L458.974 33.776C455.308 29.922 452.394 25.128 452.394 18.642C452.394 6.704 461.512 0.781996 471.288 0.781996C476.082 0.781996 480.594 2.004 483.884 3.79L484.354 19.018Z" fill="#12181F"/>
</svg>
