<svg width="40" height="40" viewBox="0 0 40 40" fill="none" xmlns="http://www.w3.org/2000/svg">
<g id="InstagramLogo">
<path id="Vector" d="M19.5834 12.0834C18.1 12.0834 16.65 12.5232 15.4166 13.3474C14.1832 14.1715 13.2219 15.3428 12.6543 16.7132C12.0866 18.0837 11.9381 19.5917 12.2275 21.0466C12.5169 22.5014 13.2312 23.8378 14.2801 24.8867C15.329 25.9356 16.6653 26.6499 18.1202 26.9393C19.5751 27.2287 21.0831 27.0801 22.4535 26.5125C23.8239 25.9448 24.9953 24.9835 25.8194 23.7502C26.6435 22.5168 27.0834 21.0667 27.0834 19.5834C27.0813 17.5949 26.2905 15.6884 24.8844 14.2824C23.4783 12.8763 21.5719 12.0854 19.5834 12.0834ZM19.5834 24.5834C18.5945 24.5834 17.6278 24.2901 16.8055 23.7407C15.9833 23.1913 15.3424 22.4104 14.964 21.4968C14.5855 20.5832 14.4865 19.5778 14.6794 18.6079C14.8724 17.638 15.3486 16.7471 16.0478 16.0478C16.7471 15.3486 17.638 14.8724 18.6079 14.6794C19.5778 14.4865 20.5832 14.5855 21.4968 14.964C22.4104 15.3424 23.1913 15.9833 23.7407 16.8055C24.2901 17.6278 24.5834 18.5945 24.5834 19.5834C24.5834 20.9095 24.0566 22.1812 23.1189 23.1189C22.1812 24.0566 20.9095 24.5834 19.5834 24.5834ZM27.0834 3.33337H12.0834C9.76349 3.33586 7.53934 4.25853 5.89893 5.89893C4.25853 7.53934 3.33586 9.76349 3.33337 12.0834V27.0834C3.33586 29.4033 4.25853 31.6274 5.89893 33.2678C7.53934 34.9082 9.76349 35.8309 12.0834 35.8334H27.0834C29.4033 35.8309 31.6274 34.9082 33.2678 33.2678C34.9082 31.6274 35.8309 29.4033 35.8334 27.0834V12.0834C35.8309 9.76349 34.9082 7.53934 33.2678 5.89893C31.6274 4.25853 29.4033 3.33586 27.0834 3.33337ZM33.3334 27.0834C33.3334 28.741 32.6749 30.3307 31.5028 31.5028C30.3307 32.6749 28.741 33.3334 27.0834 33.3334H12.0834C10.4258 33.3334 8.83606 32.6749 7.66396 31.5028C6.49185 30.3307 5.83337 28.741 5.83337 27.0834V12.0834C5.83337 10.4258 6.49185 8.83606 7.66396 7.66396C8.83606 6.49185 10.4258 5.83337 12.0834 5.83337H27.0834C28.741 5.83337 30.3307 6.49185 31.5028 7.66396C32.6749 8.83606 33.3334 10.4258 33.3334 12.0834V27.0834ZM29.5834 11.4584C29.5834 11.8292 29.4734 12.1917 29.2674 12.5001C29.0614 12.8084 28.7685 13.0487 28.4259 13.1906C28.0833 13.3326 27.7063 13.3697 27.3426 13.2973C26.9789 13.225 26.6448 13.0464 26.3825 12.7842C26.1203 12.522 25.9417 12.1879 25.8694 11.8242C25.7971 11.4605 25.8342 11.0835 25.9761 10.7408C26.118 10.3982 26.3583 10.1054 26.6667 9.89937C26.975 9.69334 27.3375 9.58337 27.7084 9.58337C28.2057 9.58337 28.6826 9.78092 29.0342 10.1325C29.3858 10.4842 29.5834 10.9611 29.5834 11.4584Z" fill="#12181F"/>
</g>
</svg>
