<svg width="351" height="73" viewBox="0 0 351 73" fill="none" xmlns="http://www.w3.org/2000/svg">
<path d="M41.864 19.018L41.018 19.206C36.788 6.13999 32.276 2.66199 27.012 2.66199C20.338 2.66199 15.92 7.926 15.92 14.788C15.92 22.308 21.184 27.102 26.448 32.366C31.712 37.63 36.976 43.458 36.976 52.858C36.976 65.548 27.952 72.41 16.202 72.41C10.562 72.41 4.828 70.906 1.068 68.744L0.41 52.012L1.256 51.824C6.05 65.642 11.22 70.53 18.082 70.53C26.072 70.53 30.678 63.574 30.678 55.772C30.678 47.782 25.508 42.706 20.244 37.724L16.484 33.776C12.818 29.922 9.904 25.128 9.904 18.642C9.904 6.704 19.022 0.781996 28.798 0.781996C33.592 0.781996 38.104 2.004 41.394 3.79L41.864 19.018ZM79.2136 71H42.1776V70.812C44.6216 66.582 45.7496 63.386 46.7836 57.276L54.3036 15.916C55.3376 9.712 54.9616 6.704 53.9276 2.38V2.192H86.2636L87.3916 16.95L86.5456 17.138C82.7856 9.524 79.6836 4.448 75.4536 4.354L63.8916 3.97799L58.2516 35.468H65.4896C69.2496 35.468 72.6336 30.298 75.3596 26.82H76.2056L73.0096 45.526H72.1636C70.3776 41.766 68.8736 37.348 65.2076 37.348H57.8756L52.1416 69.402L65.9596 68.932C73.2916 68.65 77.9916 62.164 84.4776 54.174L85.3236 54.55L79.2136 71ZM89.2694 70.812C91.8074 66.488 92.7474 63.386 94.0634 56.524L101.301 16.574C102.335 9.806 102.241 6.798 100.925 2.38V2.192H118.973C130.723 2.192 135.987 7.362 135.987 16.762C135.987 26.632 129.501 34.246 120.571 36.69L126.493 59.814C128.279 66.394 129.971 68.556 133.637 70.624V71H121.605L113.239 37.818H104.779L101.395 56.618C100.173 63.386 100.549 66.582 101.771 70.812V71H89.2694V70.812ZM117.469 4.072H114.273C113.239 4.072 112.017 4.072 110.795 4.166L105.155 35.938H113.051C123.297 35.938 127.997 26.068 127.997 16.292C127.997 8.30199 124.895 4.072 117.469 4.072ZM151.952 71.752L147.064 17.232C146.312 8.49 145.09 5.29399 143.398 2.38V2.192H157.122V2.38C155.336 4.918 153.926 9.43 154.584 17.326L158.062 59.344L176.956 19.018C181.468 9.43 180.34 4.918 179.306 2.38V2.192H189.74V2.38C185.698 5.858 184.006 8.96 180.246 16.95L154.302 71.752H151.952ZM182.349 71V70.812C184.981 66.394 186.015 63.574 187.237 56.806L194.475 16.386C195.509 9.61799 195.415 6.704 194.099 2.38V2.192H206.695V2.38C203.969 6.60999 203.029 9.524 201.807 16.386L194.569 56.806C193.347 63.48 193.723 66.488 194.945 70.812V71H182.349ZM252.961 66.3C250.423 68.274 242.057 72.41 232.845 72.41C216.489 72.41 208.405 60.19 208.405 43.176C208.405 20.616 223.539 0.781996 244.313 0.781996C251.551 0.781996 257.943 3.602 260.199 4.82399L261.233 19.582L260.387 19.77C255.123 7.362 249.859 2.66199 242.433 2.66199C225.983 2.66199 216.489 24.658 216.489 45.526C216.489 60.284 222.317 70.53 233.033 70.53C242.621 70.53 249.201 61.976 255.969 51.448L256.909 51.636L252.961 66.3ZM298.884 71H261.848V70.812C264.292 66.582 265.42 63.386 266.454 57.276L273.974 15.916C275.008 9.712 274.632 6.704 273.598 2.38V2.192H305.934L307.062 16.95L306.216 17.138C302.456 9.524 299.354 4.448 295.124 4.354L283.562 3.97799L277.922 35.468H285.16C288.92 35.468 292.304 30.298 295.03 26.82H295.876L292.68 45.526H291.834C290.048 41.766 288.544 37.348 284.878 37.348H277.546L271.812 69.402L285.63 68.932C292.962 68.65 297.662 62.164 304.148 54.174L304.994 54.55L298.884 71ZM350.852 19.018L350.006 19.206C345.776 6.13999 341.264 2.66199 336 2.66199C329.326 2.66199 324.908 7.926 324.908 14.788C324.908 22.308 330.172 27.102 335.436 32.366C340.7 37.63 345.964 43.458 345.964 52.858C345.964 65.548 336.94 72.41 325.19 72.41C319.55 72.41 313.816 70.906 310.056 68.744L309.398 52.012L310.244 51.824C315.038 65.642 320.208 70.53 327.07 70.53C335.06 70.53 339.666 63.574 339.666 55.772C339.666 47.782 334.496 42.706 329.232 37.724L325.472 33.776C321.806 29.922 318.892 25.128 318.892 18.642C318.892 6.704 328.01 0.781996 337.786 0.781996C342.58 0.781996 347.092 2.004 350.382 3.79L350.852 19.018Z" fill="#12181F"/>
</svg>
